<?xml version="1.0" encoding="iso-8859-1"?>
<!-- Generator: Adobe Illustrator 18.1.1, SVG Export Plug-In . SVG Version: 6.00 Build 0)  -->
<!DOCTYPE svg PUBLIC "-//W3C//DTD SVG 1.1//EN" "http://www.w3.org/Graphics/SVG/1.1/DTD/svg11.dtd">
<svg version="1.1" id="Layer_1" xmlns="http://www.w3.org/2000/svg" xmlns:xlink="http://www.w3.org/1999/xlink" x="0px" y="0px"
	 viewBox="0 0 42.554 45.776" style="enable-background:new 0 0 42.554 45.776;" xml:space="preserve">
<g>
	<g>
		<g>
			<path style="fill:#FF971A;" d="M15.822,24.271c0.146,0.112,0.334,0.163,0.516,0.139c0.182-0.024,0.351-0.121,0.463-0.267
				c0.112-0.146,0.163-0.334,0.139-0.516c-0.024-0.182-0.121-0.351-0.267-0.463c-0.146-0.112-0.334-0.163-0.516-0.139
				c-0.182,0.024-0.351,0.121-0.463,0.267c-0.112,0.146-0.163,0.334-0.139,0.516C15.579,23.99,15.677,24.159,15.822,24.271z"/>
			<path style="fill:#FF971A;" d="M22.124,37.478L6.771,28.301c0.174-0.159,0.343-0.327,0.491-0.521
				c0.528-0.686,0.8-1.489,0.834-2.294l5.915-0.772c0.383-0.05,0.652-0.401,0.602-0.783c-0.05-0.383-0.401-0.652-0.783-0.602
				L7.915,24.1c-0.24-0.769-0.709-1.475-1.395-2.003c-0.065-0.05-0.138-0.082-0.206-0.128l10.7-13.705
				c0.283-0.362,0.218-0.884-0.144-1.166c-0.361-0.281-0.884-0.218-1.166,0.144L4.706,21.331c-1.425-0.232-2.928,0.287-3.868,1.509
				c-1.362,1.771-1.029,4.32,0.742,5.682c1.107,0.851,2.518,1.04,3.754,0.63c0.044,0.044,0.082,0.092,0.137,0.125l15.881,9.493
				c0.014,0.009,0.029,0.017,0.044,0.024c0.35,0.179,0.784,0.058,0.988-0.284C22.597,38.153,22.481,37.691,22.124,37.478z
				 M2.432,27.414c-1.16-0.892-1.379-2.562-0.486-3.723c0.892-1.16,2.562-1.379,3.723-0.486c1.16,0.892,1.378,2.562,0.486,3.723
				C5.263,28.089,3.593,28.307,2.432,27.414z"/>
		</g>
	</g>
	<g>
		<path style="fill:#0FA3B1;" d="M40.973,22.681c-1.123-0.864-2.557-1.041-3.805-0.607c-0.037-0.098-0.093-0.191-0.171-0.271
			l-5.426-5.544c-0.062-0.063-0.137-0.106-0.212-0.143c0.268-0.914-0.026-1.939-0.825-2.553c-1.038-0.798-2.533-0.603-3.331,0.435
			c-0.65,0.846-0.641,1.994-0.055,2.822l-1.132,1.472c-0.791-0.454-1.667-0.677-2.538-0.681l-0.827-6.333
			c1.734-0.448,3.182-1.693,3.873-3.374c0.147-0.357-0.024-0.765-0.381-0.912c-0.357-0.147-0.765,0.024-0.912,0.381
			c-0.588,1.43-1.901,2.444-3.43,2.65c-0.006,0.001-0.012,0.001-0.019,0.002c0,0-0.011,0.002-0.016,0.003
			c-2.362,0.299-4.531-1.373-4.839-3.736c-0.309-2.368,1.366-4.547,3.734-4.856c1.498-0.196,2.963,0.387,3.92,1.559
			c0.244,0.299,0.684,0.343,0.983,0.099c0.299-0.244,0.343-0.684,0.099-0.983c-1.265-1.549-3.202-2.32-5.183-2.061
			c-3.132,0.409-5.348,3.29-4.939,6.422c0.205,1.566,1.027,2.903,2.19,3.797c0.989,0.76,2.224,1.199,3.534,1.188l0.827,6.334
			c-1.054,0.285-2.027,0.904-2.742,1.834c-1.738,2.26-1.313,5.512,0.947,7.25c0.931,0.716,2.029,1.064,3.121,1.069l1.003,7.678
			c-1.054,0.285-2.027,0.904-2.743,1.834c-1.738,2.26-1.313,5.512,0.947,7.25c2.26,1.738,5.512,1.313,7.25-0.947
			c1.738-2.26,1.313-5.512-0.947-7.25c-0.931-0.716-2.029-1.064-3.122-1.069l-1.003-7.678c1.054-0.285,2.027-0.904,2.743-1.834
			c0.342-0.444,0.598-0.927,0.775-1.429l6.133,1.269c-0.037,1.257,0.507,2.513,1.578,3.337c1.771,1.362,4.32,1.029,5.682-0.742
			C43.077,26.592,42.744,24.043,40.973,22.681z M28.077,37.617c1.649,1.268,1.959,3.641,0.691,5.29
			c-1.268,1.649-3.641,1.959-5.29,0.691c-1.649-1.268-1.959-3.641-0.691-5.29C24.055,36.659,26.428,36.349,28.077,37.617z
			 M28.312,14.849c0.329-0.428,0.944-0.508,1.372-0.179c0.428,0.329,0.508,0.944,0.179,1.372s-0.944,0.508-1.372,0.179
			C28.063,15.891,27.983,15.276,28.312,14.849z M26.44,25.076c-1.268,1.649-3.641,1.959-5.29,0.691s-1.959-3.641-0.691-5.29
			c1.268-1.649,3.641-1.959,5.29-0.691C27.398,21.054,27.708,23.427,26.44,25.076z M34.737,24.4l-6.132-1.269
			c0.097-1.447-0.414-2.911-1.48-3.988l1.132-1.472c0.738,0.275,1.571,0.159,2.212-0.3l5.363,5.479
			c-0.194,0.171-0.377,0.36-0.54,0.573C35.056,23.728,34.872,24.058,34.737,24.4z M40.608,27.511
			c-0.892,1.16-2.562,1.378-3.723,0.486c-1.16-0.892-1.378-2.562-0.486-3.723c0.892-1.16,2.562-1.378,3.723-0.486
			C41.282,24.68,41.5,26.351,40.608,27.511z"/>
		<path style="fill:#0FA3B1;" d="M25.522,5.196c0.024,0.193,0.125,0.357,0.267,0.467c0.141,0.108,0.323,0.163,0.513,0.139
			c0.383-0.048,0.654-0.397,0.606-0.78l-0.004-0.035c-0.051-0.382-0.402-0.651-0.785-0.6c-0.382,0.051-0.651,0.402-0.6,0.785
			L25.522,5.196z"/>
	</g>
</g>
<g>
</g>
<g>
</g>
<g>
</g>
<g>
</g>
<g>
</g>
<g>
</g>
<g>
</g>
<g>
</g>
<g>
</g>
<g>
</g>
<g>
</g>
<g>
</g>
<g>
</g>
<g>
</g>
<g>
</g>
</svg>
