<?xml version="1.0" encoding="iso-8859-1"?>
<!-- Generator: Adobe Illustrator 18.1.1, SVG Export Plug-In . SVG Version: 6.00 Build 0)  -->
<!DOCTYPE svg PUBLIC "-//W3C//DTD SVG 1.1//EN" "http://www.w3.org/Graphics/SVG/1.1/DTD/svg11.dtd">
<svg version="1.1" id="Layer_1" xmlns="http://www.w3.org/2000/svg" xmlns:xlink="http://www.w3.org/1999/xlink" x="0px" y="0px"
	 viewBox="0 0 138 138" style="enable-background:new 0 0 138 138;" xml:space="preserve">
<g>
	<g>
		<path style="fill:#FFFFFF;" d="M69,138c-38.047,0-69-30.953-69-69S30.953,0,69,0s69,30.953,69,69S107.047,138,69,138z M69,3
			C32.607,3,3,32.607,3,69s29.607,66,66,66s66-29.607,66-66S105.393,3,69,3z"/>
	</g>
	<path style="fill:#FFFFFF;" d="M86.066,43.403c0.938,2.129,1.543,5.657,0.637,8.243c3.703,3.16,4.973,10.839,3.188,17.117
		c5.273,0.402,11.554-0.196,15.609,1.422c-3.789-0.485-8.969-1.442-13.855-1.11c-0.926,0.063-2.301-0.035-2.231,1.27
		c5.656,0.441,11.281,0.926,15.93,2.379c-4.61-0.754-10.203-1.903-15.93-2.063c-2.367,4.668-7.129,6.965-13.699,7.446
		c0.707,1.539,2.058,2.125,2.39,4.597c0.493,3.696-0.773,9.106,0.473,11.567c0.602,1.179,1.574,1.211,2.234,2.218
		c-1.609,1.907-5.601-0.214-6.054-2.218c-0.781-3.438,1.183-8.762-0.953-11.094c0.148,3.75-0.887,9.012,0.156,12.359
		c0.414,1.317,1.601,1.828,1.277,3.016c-7.484,0.758-4.355-9.684-5.578-15.848c-1.129,0.078-0.633,1.688-0.637,2.375
		c-0.031,6.02,1.231,14.278-5.257,13.473c-0.188-1.266,0.871-1.695,1.273-2.852c1.184-3.386-0.219-8.433,0.324-12.519
		c-2.476,1.867,0.258,8.383-1.277,11.722c-0.883,1.926-3.731,2.762-5.891,1.903c0.282-1.43,1.758-1.199,2.387-2.535
		c0.875-1.86,0.004-4.539,0.316-7.289c-4.582,0.918-8.136-0.133-9.875-3.012c-0.781-1.289-0.972-2.813-1.914-3.961
		c-0.937-1.145-2.433-1.297-2.867-2.848c5.68-1.367,5.895,5.84,10.992,6.02c1.563,0.054,2.375-0.453,3.825-0.793
		c0.402-1.817,1.269-3.172,2.546-4.121c-6.343-0.867-11.582-2.844-14.015-7.602c-5.766,0.281-11.043,1.051-15.93,2.215
		c4.434-1.609,9.906-2.187,15.77-2.379c-0.344-2.074-3.375-1.504-5.254-1.426c-3.496,0.157-7.899,0.59-10.676,1.11
		c4.027-1.434,9.68-1.254,15.133-1.266c-1.668-5.234-1.09-13.543,2.551-16.641c-1.032-2.597-0.711-6.847,0.636-8.875
		c4.063,0.184,6.528,1.957,9.078,3.649c3.168-0.902,6.497-1.348,10.832-1.109c1.825,0.097,3.723,0.917,5.098,0.789
		c1.348-0.125,2.832-1.637,4.141-2.215C82.676,43.764,84.117,43.474,86.066,43.403L86.066,43.403z M86.066,43.403"/>
</g>
<g>
</g>
<g>
</g>
<g>
</g>
<g>
</g>
<g>
</g>
<g>
</g>
<g>
</g>
<g>
</g>
<g>
</g>
<g>
</g>
<g>
</g>
<g>
</g>
<g>
</g>
<g>
</g>
<g>
</g>
</svg>
