<?xml version="1.0" encoding="iso-8859-1"?>
<!-- Generator: Adobe Illustrator 18.1.1, SVG Export Plug-In . SVG Version: 6.00 Build 0)  -->
<!DOCTYPE svg PUBLIC "-//W3C//DTD SVG 1.1//EN" "http://www.w3.org/Graphics/SVG/1.1/DTD/svg11.dtd">
<svg version="1.1" id="Layer_1" xmlns="http://www.w3.org/2000/svg" xmlns:xlink="http://www.w3.org/1999/xlink" x="0px" y="0px"
	 viewBox="0 0 138 138" style="enable-background:new 0 0 138 138;" xml:space="preserve">
<g>
	<g>
		<path style="fill:#FFFFFF;" d="M69,138c-38.047,0-69-30.953-69-69S30.953,0,69,0s69,30.953,69,69S107.047,138,69,138z M69,3
			C32.607,3,3,32.607,3,69s29.607,66,66,66s66-29.607,66-66S105.393,3,69,3z"/>
	</g>
	<g>
		<path style="fill:#FFFFFF;" d="M100.833,54.148H97.36c-0.904,0-3.271,0.983-3.271,1.819v30.371c0,0.838,2.367,1.526,3.271,1.526
			h3.473v6.743H78.352v-6.743h4.497V56.394h-0.782L71.246,94.606h-8.379L52.185,56.394h-0.809v31.469h4.495v6.743H37.889v-6.743
			h2.494c0.979,0,2.001-0.687,2.001-1.526V55.967c0-0.836-1.022-1.819-2.001-1.819h-2.494v-6.744h23.306l7.61,26.973h0.205
			l7.685-26.973h24.14V54.148z M100.833,54.148"/>
	</g>
</g>
<g>
</g>
<g>
</g>
<g>
</g>
<g>
</g>
<g>
</g>
<g>
</g>
<g>
</g>
<g>
</g>
<g>
</g>
<g>
</g>
<g>
</g>
<g>
</g>
<g>
</g>
<g>
</g>
<g>
</g>
</svg>
