<?xml version="1.0" encoding="iso-8859-1"?>
<!-- Generator: Adobe Illustrator 18.1.1, SVG Export Plug-In . SVG Version: 6.00 Build 0)  -->
<!DOCTYPE svg PUBLIC "-//W3C//DTD SVG 1.1//EN" "http://www.w3.org/Graphics/SVG/1.1/DTD/svg11.dtd">
<svg version="1.1" id="Layer_1" xmlns="http://www.w3.org/2000/svg" xmlns:xlink="http://www.w3.org/1999/xlink" x="0px" y="0px"
	 viewBox="0 0 138 138" style="enable-background:new 0 0 138 138;" xml:space="preserve">
<g>
	<g>
		<path style="fill:#FFFFFF;" d="M69,138c-38.047,0-69-30.953-69-69S30.953,0,69,0s69,30.953,69,69S107.047,138,69,138z M69,3
			C32.607,3,3,32.607,3,69s29.607,66,66,66s66-29.607,66-66S105.393,3,69,3z"/>
	</g>
	<path style="fill:#FFFFFF;" d="M96.988,43.532c-0.989-1.299-2.521-2.032-4.197-2.032c-1.088,0-2.219,0.301-3.35,0.901l-48.3,25.32
		c-3.43,1.799-3.674,4.518-3.606,5.592c0.054,1.1,0.577,3.765,4.174,5.198l6.172,2.441c1.176,0.466,2.486,0.699,3.896,0.699
		c0.222,0,0.432-0.023,0.654-0.034c-0.088,0.099-0.187,0.19-0.267,0.301c-1.154,1.719-1.208,4.052-0.165,6.57
		c0.023,0.045,0.031,0.08,0.043,0.111c1.833,4.041,3.865,8.616,4.109,9.247c0.6,1.577,2.143,2.665,3.839,2.665
		c2.597,0,3.376-1.256,7.638-8.193c0.333-0.512,1.066-1.699,1.199-3.197c0.497,0.199,0.963,0.389,1.364,0.543l6.837,2.788
		c1.367,0.566,2.566,1.054,3.197,1.321c0.202,0.122,0.412,0.222,0.622,0.31c0.477,0.187,1,0.29,1.509,0.29
		c3.109,0,3.865-2.699,4.263-4.14c0.19-0.71,0.466-1.699,0.756-2.799l10.435-38.318C98.596,46.217,97.63,44.376,96.988,43.532
		L96.988,43.532z M64.186,90.13c0,0-3.873,6.306-4.209,6.306c0,0-0.011-0.011-0.011-0.023c-0.375-1.02-4.206-9.488-4.206-9.488
		c-0.699-1.699-0.577-3.154,0.634-3.154c0.264,0,0.588,0.068,0.955,0.222l2.972,1.543c0.5,0.344,1.034,0.634,1.634,0.867
		l0.154,0.065l0.278,0.134C64.675,87.823,65.405,88.255,64.186,90.13L64.186,90.13z M93.879,48.039L83.456,86.368
		c-0.588,2.154-1.088,3.919-1.1,3.919l-0.011-0.045c0-0.008-1.708-0.71-3.785-1.563l-6.837-2.788
		c-2.074-0.844-5.485-2.197-7.582-3.006l-0.344-0.134l-1.276-0.668c-1.265-0.963-1.378-2.575-0.099-3.927l21.168-22.668
		c0.844-0.909,1.165-1.375,0.989-1.375c-0.145,0-0.622,0.298-1.412,0.921L56.383,76.155c-1.165,0.912-2.941,1.421-4.606,1.421
		c-0.855,0-1.688-0.131-2.398-0.409l-6.161-2.441c-2.086-0.824-2.165-2.356-0.179-3.399l48.3-25.32
		c0.554-0.298,1.043-0.432,1.452-0.432C93.822,45.575,94.3,46.484,93.879,48.039L93.879,48.039z M93.879,48.039"/>
</g>
<g>
</g>
<g>
</g>
<g>
</g>
<g>
</g>
<g>
</g>
<g>
</g>
<g>
</g>
<g>
</g>
<g>
</g>
<g>
</g>
<g>
</g>
<g>
</g>
<g>
</g>
<g>
</g>
<g>
</g>
</svg>
