<?xml version="1.0" encoding="iso-8859-1"?>
<!-- Generator: Adobe Illustrator 18.1.1, SVG Export Plug-In . SVG Version: 6.00 Build 0)  -->
<!DOCTYPE svg PUBLIC "-//W3C//DTD SVG 1.1//EN" "http://www.w3.org/Graphics/SVG/1.1/DTD/svg11.dtd">
<svg version="1.1" id="Layer_1" xmlns="http://www.w3.org/2000/svg" xmlns:xlink="http://www.w3.org/1999/xlink" x="0px" y="0px"
	 viewBox="0 0 138 138" style="enable-background:new 0 0 138 138;" xml:space="preserve">
<g>
	<g>
		<path style="fill:#FFFFFF;" d="M69,138c-38.047,0-69-30.953-69-69S30.953,0,69,0s69,30.953,69,69S107.047,138,69,138z M69,3
			C32.607,3,3,32.607,3,69s29.607,66,66,66s66-29.607,66-66S105.393,3,69,3z"/>
	</g>
	<g>
		<path style="fill:#FFFFFF;" d="M103.167,52.729c-2.192,0.962-4.528,1.599-6.963,1.908c2.505-1.496,4.417-3.846,5.316-6.679
			c-2.336,1.393-4.914,2.377-7.662,2.925c-2.218-2.362-5.379-3.824-8.827-3.824c-6.69,0-12.076,5.43-12.076,12.088
			c0,0.958,0.081,1.879,0.28,2.755c-10.046-0.49-18.936-5.305-24.907-12.64c-1.043,1.809-1.654,3.879-1.654,6.108
			c0,4.185,2.155,7.895,5.368,10.042c-1.942-0.036-3.846-0.6-5.46-1.488v0.133c0,5.872,4.189,10.75,9.682,11.873
			c-0.984,0.269-2.056,0.398-3.168,0.398c-0.773,0-1.555-0.044-2.288-0.206c1.566,4.785,6.009,8.304,11.292,8.418
			c-4.111,3.216-9.331,5.154-14.982,5.154c-0.991,0-1.942-0.044-2.892-0.166c5.353,3.452,11.697,5.423,18.538,5.423
			c22.236,0,34.393-18.42,34.393-34.386c0-0.534-0.019-1.05-0.044-1.562C99.509,57.301,101.524,55.176,103.167,52.729
			L103.167,52.729z M103.167,52.729"/>
	</g>
</g>
<g>
</g>
<g>
</g>
<g>
</g>
<g>
</g>
<g>
</g>
<g>
</g>
<g>
</g>
<g>
</g>
<g>
</g>
<g>
</g>
<g>
</g>
<g>
</g>
<g>
</g>
<g>
</g>
<g>
</g>
</svg>
