<?xml version="1.0" encoding="iso-8859-1"?>
<!-- Generator: Adobe Illustrator 18.1.1, SVG Export Plug-In . SVG Version: 6.00 Build 0)  -->
<!DOCTYPE svg PUBLIC "-//W3C//DTD SVG 1.1//EN" "http://www.w3.org/Graphics/SVG/1.1/DTD/svg11.dtd">
<svg version="1.1" id="Layer_1" xmlns="http://www.w3.org/2000/svg" xmlns:xlink="http://www.w3.org/1999/xlink" x="0px" y="0px"
	 viewBox="0 0 278.682 87.268" style="enable-background:new 0 0 278.682 87.268;" xml:space="preserve">
<g>
	<g>
		<g>
			<path style="fill:#FFFFFF;" d="M30.164,46.271c0.278,0.214,0.637,0.31,0.984,0.265c0.347-0.045,0.67-0.231,0.883-0.509
				c0.214-0.278,0.31-0.637,0.265-0.984c-0.045-0.347-0.231-0.67-0.509-0.883c-0.278-0.214-0.637-0.31-0.984-0.265
				c-0.347,0.045-0.67,0.231-0.883,0.509c-0.214,0.278-0.31,0.637-0.265,0.984C29.701,45.734,29.886,46.057,30.164,46.271z"/>
			<path style="fill:#FFFFFF;" d="M42.177,71.45L12.909,53.954c0.333-0.303,0.653-0.624,0.937-0.993
				c1.006-1.308,1.525-2.838,1.589-4.374l11.277-1.473c0.729-0.095,1.243-0.764,1.148-1.493c-0.095-0.729-0.764-1.243-1.493-1.148
				L15.09,45.946c-0.457-1.467-1.351-2.812-2.659-3.818c-0.125-0.096-0.264-0.156-0.393-0.243l20.398-26.127
				c0.539-0.689,0.416-1.685-0.274-2.223c-0.688-0.536-1.685-0.416-2.223,0.274L8.971,40.666c-2.716-0.442-5.581,0.547-7.373,2.876
				c-2.597,3.377-1.962,8.236,1.415,10.833c2.111,1.623,4.801,1.984,7.156,1.201c0.083,0.083,0.156,0.175,0.262,0.238l30.275,18.098
				c0.027,0.016,0.055,0.032,0.083,0.047c0.667,0.342,1.494,0.111,1.884-0.542C43.08,72.737,42.857,71.856,42.177,71.45z
				 M4.637,52.264c-2.212-1.701-2.628-4.885-0.927-7.097c1.701-2.212,4.885-2.628,7.097-0.927c2.212,1.701,2.628,4.885,0.927,7.097
				C10.033,53.549,6.849,53.965,4.637,52.264z"/>
		</g>
		<g>
			<path style="fill:#FFFFFF;" d="M78.112,43.239c-2.141-1.646-4.875-1.985-7.253-1.158c-0.071-0.188-0.177-0.365-0.326-0.517
				L60.189,30.996c-0.119-0.121-0.26-0.201-0.404-0.273c0.511-1.742-0.049-3.696-1.572-4.868c-1.979-1.522-4.828-1.15-6.35,0.829
				c-1.24,1.612-1.223,3.801-0.105,5.38L49.6,34.871c-1.509-0.865-3.178-1.291-4.839-1.299l-1.577-12.074
				c3.305-0.854,6.067-3.228,7.383-6.432c0.28-0.681-0.045-1.459-0.726-1.738c-0.68-0.28-1.459,0.045-1.738,0.726
				c-1.12,2.726-3.624,4.659-6.539,5.052c-0.012,0.001-0.023,0.001-0.035,0.003c-0.01,0.001-0.021,0.004-0.031,0.006
				c-4.503,0.571-8.638-2.618-9.226-7.122c-0.59-4.515,2.604-8.668,7.119-9.257c2.855-0.373,5.649,0.738,7.473,2.972
				c0.465,0.569,1.304,0.655,1.874,0.19c0.57-0.465,0.655-1.304,0.189-1.874c-2.411-2.953-6.105-4.422-9.881-3.929
				c-5.971,0.78-10.195,6.272-9.416,12.244c0.39,2.986,1.958,5.535,4.175,7.239c1.885,1.45,4.239,2.286,6.737,2.265l1.577,12.075
				c-2.01,0.544-3.864,1.723-5.228,3.497c-3.313,4.308-2.503,10.508,1.805,13.821c1.774,1.364,3.869,2.028,5.951,2.037l1.911,14.637
				c-2.01,0.544-3.864,1.723-5.228,3.497c-3.313,4.308-2.503,10.508,1.805,13.821c4.308,3.313,10.508,2.503,13.821-1.805
				c3.313-4.308,2.503-10.508-1.805-13.821c-1.774-1.364-3.869-2.028-5.951-2.037l-1.911-14.637c2.01-0.544,3.864-1.723,5.229-3.497
				c0.651-0.847,1.141-1.768,1.478-2.725l11.692,2.42c-0.07,2.396,0.967,4.792,3.007,6.361c3.377,2.597,8.236,1.962,10.833-1.415
				S81.489,45.836,78.112,43.239z M53.527,71.714c3.144,2.418,3.735,6.942,1.317,10.086c-2.418,3.144-6.942,3.734-10.086,1.317
				c-3.144-2.418-3.735-6.942-1.317-10.086C45.858,69.888,50.383,69.297,53.527,71.714z M53.974,28.308
				c0.627-0.815,1.8-0.968,2.615-0.342c0.815,0.627,0.968,1.8,0.341,2.615c-0.627,0.815-1.8,0.968-2.615,0.341
				C53.501,30.296,53.348,29.123,53.974,28.308z M50.405,47.806c-2.418,3.144-6.942,3.735-10.086,1.317
				c-3.144-2.418-3.735-6.942-1.317-10.086c2.418-3.144,6.942-3.735,10.086-1.317C52.232,40.138,52.823,44.663,50.405,47.806z
				 M66.223,46.517l-11.691-2.42c0.185-2.758-0.79-5.55-2.821-7.602l2.159-2.807c1.408,0.524,2.995,0.304,4.217-0.571L68.31,43.562
				c-0.371,0.325-0.718,0.687-1.03,1.092C66.831,45.237,66.482,45.865,66.223,46.517z M77.416,52.448
				c-1.701,2.212-4.885,2.628-7.097,0.927c-2.212-1.701-2.628-4.885-0.927-7.097c1.701-2.212,4.885-2.628,7.097-0.927
				C78.701,47.052,79.117,50.236,77.416,52.448z"/>
			<path style="fill:#FFFFFF;" d="M48.655,9.906c0.046,0.367,0.238,0.681,0.51,0.89c0.269,0.206,0.615,0.311,0.978,0.266
				c0.73-0.092,1.247-0.758,1.155-1.488l-0.009-0.067c-0.097-0.729-0.767-1.242-1.496-1.145c-0.729,0.097-1.242,0.767-1.145,1.496
				L48.655,9.906z"/>
		</g>
	</g>
	<g>
		<path style="fill:#FFFFFF;" d="M119.91,35.501c-1.844,5.884-3.711,11.327-5.598,16.332c-1.888,5.005-3.776,9.878-5.664,14.62
			h-6.388c-2.328-6.717-4.379-13.807-6.158-21.271c-1.778-7.463-3.436-15.585-4.972-24.366h6.717
			c0.614,3.424,1.251,6.849,1.91,10.273c0.659,3.424,1.339,6.75,2.042,9.977c0.702,3.227,1.405,6.312,2.108,9.253
			c0.701,2.942,1.426,5.664,2.173,8.166c1.755-4.61,3.622-9.669,5.598-15.179c1.975-5.509,3.819-11.206,5.532-17.089h5.532
			c1.712,5.884,3.578,11.58,5.598,17.089c2.019,5.51,3.907,10.569,5.664,15.179c0.702-2.458,1.405-5.158,2.107-8.1
			c0.702-2.941,1.393-6.026,2.074-9.253c0.68-3.227,1.35-6.563,2.008-10.01c0.659-3.446,1.295-6.882,1.91-10.306h6.52
			c-1.581,8.781-3.26,16.903-5.038,24.366c-1.778,7.464-3.809,14.554-6.091,21.271h-6.388c-1.933-4.742-3.82-9.615-5.664-14.62
			S121.754,41.385,119.91,35.501z"/>
		<path style="fill:#FFFFFF;" d="M164.889,31.352c2.458,0,4.532,0.319,6.223,0.955c1.689,0.637,3.051,1.537,4.083,2.7
			c1.031,1.164,1.767,2.547,2.206,4.149c0.438,1.603,0.658,3.37,0.658,5.301V65.86c-0.527,0.088-1.262,0.209-2.206,0.362
			c-0.944,0.154-2.008,0.297-3.194,0.428c-1.186,0.132-2.469,0.252-3.852,0.362c-1.383,0.109-2.756,0.165-4.116,0.165
			c-1.932,0-3.711-0.197-5.334-0.593c-1.625-0.395-3.029-1.021-4.215-1.877c-1.186-0.856-2.108-1.986-2.766-3.391
			c-0.659-1.405-0.988-3.095-0.988-5.071c0-1.887,0.384-3.512,1.153-4.873c0.767-1.36,1.811-2.458,3.128-3.293
			c1.317-0.833,2.853-1.449,4.61-1.844c1.755-0.395,3.599-0.593,5.532-0.593c0.614,0,1.251,0.033,1.909,0.099
			c0.659,0.066,1.284,0.155,1.877,0.264c0.593,0.11,1.108,0.209,1.548,0.296c0.438,0.088,0.746,0.154,0.922,0.198v-1.712
			c0-1.01-0.11-2.009-0.329-2.996c-0.22-0.988-0.615-1.866-1.186-2.634c-0.571-0.768-1.35-1.383-2.338-1.844
			c-0.988-0.461-2.272-0.691-3.852-0.691c-2.02,0-3.787,0.143-5.301,0.428c-1.515,0.286-2.646,0.582-3.391,0.889l-0.725-5.071
			c0.79-0.351,2.108-0.692,3.951-1.021S162.737,31.352,164.889,31.352z M165.415,62.04c1.449,0,2.733-0.033,3.853-0.099
			c1.119-0.066,2.052-0.186,2.799-0.362V51.371c-0.44-0.219-1.153-0.405-2.141-0.56c-0.988-0.153-2.184-0.231-3.589-0.231
			c-0.922,0-1.899,0.066-2.93,0.198c-1.032,0.132-1.975,0.407-2.832,0.823c-0.856,0.418-1.57,0.988-2.14,1.712
			c-0.571,0.724-0.856,1.679-0.856,2.865c0,2.196,0.702,3.721,2.108,4.577C161.091,61.612,163,62.04,165.415,62.04z"/>
		<path style="fill:#FFFFFF;" d="M198.473,67.111c-3.777-0.088-6.454-0.899-8.034-2.437c-1.581-1.536-2.371-3.928-2.371-7.178
			V16.403l6.124-1.054v41.159c0,1.01,0.087,1.844,0.263,2.502c0.175,0.658,0.461,1.185,0.856,1.58
			c0.395,0.395,0.922,0.692,1.581,0.889s1.47,0.362,2.436,0.494L198.473,67.111z"/>
		<path style="fill:#FFFFFF;" d="M216.451,67.111c-3.777-0.088-6.454-0.899-8.034-2.437c-1.581-1.536-2.371-3.928-2.371-7.178
			V16.403l6.124-1.054v41.159c0,1.01,0.087,1.844,0.263,2.502c0.175,0.658,0.461,1.185,0.856,1.58
			c0.395,0.395,0.922,0.692,1.581,0.889s1.47,0.362,2.436,0.494L216.451,67.111z"/>
		<path style="fill:#FFFFFF;" d="M230.277,26.018c-1.098,0-2.031-0.362-2.799-1.087c-0.769-0.725-1.153-1.701-1.153-2.931
			c0-1.228,0.384-2.206,1.153-2.93c0.767-0.724,1.701-1.087,2.799-1.087c1.097,0,2.03,0.362,2.799,1.087
			c0.768,0.724,1.153,1.702,1.153,2.93c0,1.23-0.385,2.206-1.153,2.931C232.308,25.656,231.374,26.018,230.277,26.018z
			 M233.372,66.452h-6.124V32.208h6.124V66.452z"/>
		<path style="fill:#FFFFFF;" d="M278.682,43.601c0,3.951-0.615,7.387-1.844,10.306c-1.229,2.92-2.963,5.334-5.203,7.244
			c-2.239,1.91-4.918,3.337-8.034,4.281c-3.118,0.944-6.542,1.416-10.273,1.416c-1.844,0-3.875-0.077-6.091-0.23
			c-2.217-0.155-4.226-0.45-6.025-0.889V21.474c1.8-0.438,3.808-0.735,6.025-0.889c2.217-0.153,4.248-0.23,6.091-0.23
			c3.731,0,7.156,0.472,10.273,1.416c3.116,0.944,5.795,2.371,8.034,4.28c2.239,1.91,3.973,4.325,5.203,7.244
			C278.067,36.215,278.682,39.649,278.682,43.601z M253.855,61.25c6.058,0,10.58-1.548,13.566-4.643
			c2.985-3.095,4.478-7.43,4.478-13.006c0-5.575-1.493-9.911-4.478-13.006c-2.986-3.095-7.507-4.643-13.566-4.643
			c-1.801,0-3.194,0.022-4.182,0.066c-0.988,0.044-1.68,0.088-2.075,0.132v34.903c0.395,0.044,1.087,0.088,2.075,0.132
			C250.661,61.228,252.055,61.25,253.855,61.25z"/>
	</g>
	<g>
		<path style="fill:#FFFFFF;" d="M104.115,80.105l1.995-3.74h0.942l-2.497,4.578v2.901h-0.879v-2.86l-2.492-4.619h0.951
			L104.115,80.105z"/>
		<path style="fill:#FFFFFF;" d="M112.791,81.036c0,0.914-0.23,1.628-0.691,2.141c-0.46,0.513-1.097,0.77-1.908,0.77
			c-0.502,0-0.947-0.118-1.335-0.353c-0.389-0.235-0.69-0.573-0.901-1.013c-0.212-0.44-0.317-0.955-0.317-1.545
			c0-0.914,0.229-1.626,0.685-2.136c0.457-0.51,1.091-0.765,1.903-0.765c0.785,0,1.408,0.261,1.87,0.783
			C112.56,79.44,112.791,80.146,112.791,81.036z M108.519,81.036c0,0.716,0.143,1.262,0.43,1.637
			c0.287,0.375,0.708,0.563,1.263,0.563c0.556,0,0.979-0.187,1.266-0.56c0.288-0.373,0.432-0.92,0.432-1.64
			c0-0.713-0.144-1.254-0.432-1.624s-0.714-0.555-1.277-0.555c-0.556,0-0.975,0.182-1.258,0.547
			C108.662,79.769,108.519,80.313,108.519,81.036z"/>
		<path style="fill:#FFFFFF;" d="M115.078,78.237v3.637c0,0.457,0.103,0.798,0.312,1.023c0.208,0.225,0.534,0.338,0.976,0.338
			c0.586,0,1.015-0.16,1.286-0.481s0.407-0.844,0.407-1.571v-2.947h0.849v5.607h-0.7l-0.123-0.752h-0.045
			c-0.174,0.276-0.415,0.488-0.724,0.634c-0.309,0.147-0.661,0.22-1.057,0.22c-0.682,0-1.193-0.162-1.532-0.486
			c-0.34-0.324-0.508-0.842-0.508-1.555v-3.668H115.078z"/>
		<path style="fill:#FFFFFF;" d="M123.269,78.135c0.249,0,0.471,0.02,0.67,0.061l-0.118,0.788c-0.232-0.051-0.437-0.077-0.614-0.077
			c-0.453,0-0.841,0.184-1.163,0.552c-0.323,0.368-0.484,0.827-0.484,1.376v3.008h-0.849v-5.607h0.7l0.098,1.039h0.04
			c0.209-0.365,0.459-0.646,0.753-0.844C122.595,78.234,122.916,78.135,123.269,78.135z"/>
		<path style="fill:#FFFFFF;" d="M127.837,83.844v-7.479h0.87v7.479H127.837z"/>
		<path style="fill:#FFFFFF;" d="M136.728,80.033c0,1.235-0.335,2.178-1.006,2.831c-0.67,0.653-1.634,0.98-2.892,0.98h-2.072v-7.479
			h2.292c1.162,0,2.066,0.322,2.711,0.967C136.405,77.976,136.728,78.877,136.728,80.033z M135.806,80.064
			c0-0.975-0.245-1.71-0.734-2.205c-0.489-0.494-1.217-0.742-2.182-0.742h-1.263v5.975h1.059c1.037,0,1.816-0.255,2.338-0.765
			C135.546,81.818,135.806,81.063,135.806,80.064z"/>
		<path style="fill:#FFFFFF;" d="M140.917,76.718c0-0.194,0.047-0.337,0.143-0.427c0.095-0.09,0.215-0.136,0.357-0.136
			c0.137,0,0.254,0.046,0.353,0.138c0.099,0.092,0.149,0.234,0.149,0.425c0,0.191-0.05,0.333-0.149,0.427
			c-0.099,0.094-0.216,0.141-0.353,0.141c-0.142,0-0.263-0.047-0.357-0.141C140.965,77.051,140.917,76.909,140.917,76.718z
			 M141.838,83.844h-0.849v-5.607h0.849V83.844z"/>
		<path style="fill:#FFFFFF;" d="M147.475,83.844v-3.627c0-0.457-0.103-0.798-0.312-1.023c-0.208-0.225-0.534-0.338-0.976-0.338
			c-0.586,0-1.017,0.159-1.29,0.476c-0.273,0.317-0.409,0.841-0.409,1.571v2.942h-0.849v-5.607h0.691l0.138,0.767h0.041
			c0.174-0.276,0.418-0.49,0.731-0.642c0.314-0.152,0.663-0.228,1.049-0.228c0.675,0,1.183,0.163,1.525,0.489
			c0.341,0.326,0.511,0.847,0.511,1.563v3.658H147.475z"/>
		<path style="fill:#FFFFFF;" d="M151.901,78.237h0.91l1.228,3.197c0.269,0.73,0.437,1.257,0.501,1.581h0.041
			c0.044-0.174,0.137-0.471,0.278-0.893c0.141-0.421,0.604-1.716,1.389-3.885h0.911l-2.409,6.384
			c-0.239,0.631-0.518,1.078-0.836,1.343c-0.32,0.264-0.711,0.396-1.175,0.396c-0.258,0-0.515-0.029-0.767-0.087v-0.68
			c0.187,0.041,0.396,0.061,0.628,0.061c0.583,0,1-0.327,1.249-0.982l0.312-0.798L151.901,78.237z"/>
		<path style="fill:#FFFFFF;" d="M162.909,81.036c0,0.914-0.23,1.628-0.691,2.141c-0.46,0.513-1.097,0.77-1.908,0.77
			c-0.502,0-0.947-0.118-1.335-0.353c-0.389-0.235-0.69-0.573-0.901-1.013c-0.212-0.44-0.317-0.955-0.317-1.545
			c0-0.914,0.229-1.626,0.685-2.136c0.457-0.51,1.091-0.765,1.903-0.765c0.785,0,1.408,0.261,1.87,0.783
			C162.678,79.44,162.909,80.146,162.909,81.036z M158.637,81.036c0,0.716,0.143,1.262,0.43,1.637
			c0.287,0.375,0.708,0.563,1.263,0.563s0.979-0.187,1.266-0.56c0.288-0.373,0.432-0.92,0.432-1.64c0-0.713-0.144-1.254-0.432-1.624
			s-0.714-0.555-1.277-0.555c-0.556,0-0.975,0.182-1.258,0.547C158.779,79.769,158.637,80.313,158.637,81.036z"/>
		<path style="fill:#FFFFFF;" d="M165.197,78.237v3.637c0,0.457,0.103,0.798,0.312,1.023c0.208,0.225,0.534,0.338,0.976,0.338
			c0.586,0,1.015-0.16,1.286-0.481c0.271-0.321,0.407-0.844,0.407-1.571v-2.947h0.849v5.607h-0.7l-0.123-0.752h-0.045
			c-0.174,0.276-0.415,0.488-0.724,0.634c-0.309,0.147-0.661,0.22-1.057,0.22c-0.682,0-1.193-0.162-1.532-0.486
			c-0.34-0.324-0.508-0.842-0.508-1.555v-3.668H165.197z"/>
		<path style="fill:#FFFFFF;" d="M173.387,78.135c0.249,0,0.471,0.02,0.67,0.061l-0.118,0.788c-0.232-0.051-0.437-0.077-0.614-0.077
			c-0.453,0-0.841,0.184-1.163,0.552c-0.323,0.368-0.484,0.827-0.484,1.376v3.008h-0.849v-5.607h0.7l0.098,1.039h0.04
			c0.209-0.365,0.459-0.646,0.753-0.844C172.713,78.234,173.035,78.135,173.387,78.135z"/>
		<path style="fill:#FFFFFF;" d="M182.124,83.844h-4.169v-7.479h4.169v0.772h-3.299v2.41h3.1v0.767h-3.1v2.752h3.299V83.844z"/>
		<path style="fill:#FFFFFF;" d="M185.464,83.246c0.151,0,0.295-0.011,0.436-0.033c0.139-0.022,0.25-0.045,0.332-0.069v0.65
			c-0.092,0.044-0.228,0.081-0.407,0.11c-0.179,0.029-0.34,0.043-0.483,0.043c-1.085,0-1.627-0.571-1.627-1.714v-3.335h-0.804
			v-0.409l0.804-0.353l0.359-1.197h0.49v1.299h1.627v0.66h-1.627v3.3c0,0.338,0.08,0.597,0.24,0.778
			C184.964,83.155,185.185,83.246,185.464,83.246z"/>
		<path style="fill:#FFFFFF;" d="M191.189,83.844v-3.627c0-0.457-0.103-0.798-0.312-1.023c-0.208-0.225-0.534-0.338-0.976-0.338
			c-0.591,0-1.021,0.16-1.292,0.481c-0.271,0.321-0.407,0.846-0.407,1.576v2.931h-0.849v-7.96h0.849v2.409
			c0,0.29-0.014,0.53-0.041,0.721h0.052c0.167-0.269,0.405-0.482,0.714-0.637c0.308-0.155,0.66-0.233,1.056-0.233
			c0.686,0,1.2,0.163,1.543,0.489c0.343,0.326,0.515,0.843,0.515,1.553v3.658H191.189z"/>
		<path style="fill:#FFFFFF;" d="M196.151,83.946c-0.829,0-1.483-0.252-1.961-0.757c-0.48-0.505-0.719-1.206-0.719-2.103
			c0-0.904,0.222-1.622,0.667-2.154s1.043-0.798,1.793-0.798c0.703,0,1.259,0.231,1.668,0.693c0.409,0.462,0.614,1.072,0.614,1.829
			v0.537h-3.863c0.017,0.658,0.183,1.158,0.499,1.499c0.315,0.341,0.76,0.512,1.333,0.512c0.604,0,1.201-0.126,1.791-0.379v0.757
			c-0.301,0.13-0.584,0.223-0.852,0.279S196.53,83.946,196.151,83.946z M195.921,78.846c-0.45,0-0.81,0.147-1.077,0.44
			c-0.268,0.293-0.426,0.699-0.473,1.218h2.931c0-0.535-0.12-0.946-0.359-1.23C196.706,78.989,196.364,78.846,195.921,78.846z"/>
		<path style="fill:#FFFFFF;" d="M202.219,78.135c0.249,0,0.471,0.02,0.67,0.061l-0.118,0.788c-0.232-0.051-0.437-0.077-0.614-0.077
			c-0.453,0-0.841,0.184-1.163,0.552c-0.323,0.368-0.484,0.827-0.484,1.376v3.008h-0.849v-5.607h0.7l0.098,1.039h0.04
			c0.209-0.365,0.459-0.646,0.753-0.844C201.545,78.234,201.867,78.135,202.219,78.135z"/>
		<path style="fill:#FFFFFF;" d="M206.306,83.946c-0.829,0-1.483-0.252-1.961-0.757c-0.48-0.505-0.719-1.206-0.719-2.103
			c0-0.904,0.222-1.622,0.667-2.154s1.043-0.798,1.793-0.798c0.703,0,1.259,0.231,1.668,0.693c0.409,0.462,0.614,1.072,0.614,1.829
			v0.537h-3.863c0.017,0.658,0.183,1.158,0.499,1.499c0.315,0.341,0.76,0.512,1.333,0.512c0.604,0,1.201-0.126,1.791-0.379v0.757
			c-0.301,0.13-0.584,0.223-0.852,0.279S206.685,83.946,206.306,83.946z M206.076,78.846c-0.45,0-0.81,0.147-1.077,0.44
			c-0.268,0.293-0.426,0.699-0.473,1.218h2.931c0-0.535-0.12-0.946-0.359-1.23C206.861,78.989,206.519,78.846,206.076,78.846z"/>
		<path style="fill:#FFFFFF;" d="M210.614,78.237v3.637c0,0.457,0.103,0.798,0.312,1.023c0.208,0.225,0.534,0.338,0.976,0.338
			c0.586,0,1.015-0.16,1.286-0.481c0.271-0.321,0.407-0.844,0.407-1.571v-2.947h0.849v5.607h-0.7l-0.123-0.752h-0.045
			c-0.174,0.276-0.415,0.488-0.724,0.634c-0.309,0.147-0.661,0.22-1.057,0.22c-0.682,0-1.193-0.162-1.532-0.486
			c-0.34-0.324-0.508-0.842-0.508-1.555v-3.668H210.614z"/>
		<path style="fill:#FFFFFF;" d="M223.392,83.844v-3.647c0-0.447-0.095-0.782-0.286-1.005c-0.192-0.223-0.488-0.335-0.891-0.335
			c-0.528,0-0.918,0.152-1.172,0.455c-0.252,0.304-0.379,0.771-0.379,1.402v3.131h-0.849v-3.647c0-0.447-0.095-0.782-0.287-1.005
			c-0.191-0.223-0.489-0.335-0.895-0.335c-0.531,0-0.922,0.159-1.168,0.478c-0.248,0.319-0.371,0.842-0.371,1.568v2.942h-0.849
			v-5.607h0.691l0.138,0.767h0.041c0.16-0.273,0.386-0.486,0.677-0.639c0.292-0.153,0.619-0.23,0.98-0.23
			c0.877,0,1.45,0.317,1.719,0.952h0.041c0.168-0.293,0.409-0.525,0.727-0.696c0.317-0.171,0.679-0.256,1.085-0.256
			c0.634,0,1.109,0.163,1.425,0.489c0.315,0.326,0.473,0.847,0.473,1.563v3.658H223.392z"/>
		<path style="fill:#FFFFFF;" d="M235.368,83.844h-0.859l-1.509-5.008c-0.072-0.222-0.152-0.501-0.24-0.839s-0.135-0.54-0.138-0.609
			c-0.075,0.45-0.194,0.943-0.357,1.478l-1.464,4.978h-0.859l-1.99-7.479h0.921l1.182,4.619c0.163,0.648,0.283,1.235,0.357,1.76
			c0.093-0.624,0.229-1.235,0.41-1.831l1.34-4.548h0.921l1.407,4.589c0.163,0.529,0.302,1.125,0.414,1.79
			c0.064-0.484,0.188-1.074,0.368-1.77l1.177-4.609h0.921L235.368,83.844z"/>
		<path style="fill:#FFFFFF;" d="M241.86,83.844l-0.169-0.798h-0.041c-0.279,0.351-0.559,0.589-0.836,0.714
			c-0.278,0.124-0.625,0.187-1.042,0.187c-0.556,0-0.991-0.143-1.307-0.43s-0.473-0.694-0.473-1.223c0-1.132,0.906-1.726,2.716-1.78
			l0.951-0.031v-0.348c0-0.44-0.094-0.765-0.284-0.975c-0.189-0.21-0.491-0.315-0.908-0.315c-0.467,0-0.995,0.143-1.586,0.43
			l-0.26-0.65c0.276-0.15,0.579-0.268,0.908-0.353c0.329-0.085,0.659-0.128,0.99-0.128c0.667,0,1.163,0.148,1.486,0.445
			c0.323,0.297,0.483,0.772,0.483,1.427v3.827H241.86z M239.941,83.246c0.529,0,0.944-0.145,1.246-0.435
			c0.302-0.29,0.452-0.696,0.452-1.218v-0.506l-0.849,0.036c-0.676,0.024-1.162,0.129-1.46,0.315
			c-0.298,0.186-0.448,0.475-0.448,0.867c0,0.307,0.093,0.541,0.279,0.701C239.347,83.166,239.607,83.246,239.941,83.246z"/>
		<path style="fill:#FFFFFF;" d="M245.088,83.844h-0.849v-7.96h0.849V83.844z"/>
		<path style="fill:#FFFFFF;" d="M247.738,83.844h-0.849v-7.96h0.849V83.844z"/>
		<path style="fill:#FFFFFF;" d="M251.907,83.946c-0.829,0-1.483-0.252-1.961-0.757c-0.48-0.505-0.719-1.206-0.719-2.103
			c0-0.904,0.223-1.622,0.667-2.154s1.043-0.798,1.793-0.798c0.703,0,1.259,0.231,1.668,0.693c0.409,0.462,0.614,1.072,0.614,1.829
			v0.537h-3.863c0.017,0.658,0.183,1.158,0.499,1.499c0.315,0.341,0.76,0.512,1.333,0.512c0.604,0,1.201-0.126,1.791-0.379v0.757
			c-0.301,0.13-0.584,0.223-0.852,0.279S252.286,83.946,251.907,83.946z M251.677,78.846c-0.45,0-0.81,0.147-1.077,0.44
			c-0.268,0.293-0.426,0.699-0.473,1.218h2.931c0-0.535-0.12-0.946-0.359-1.23C252.462,78.989,252.12,78.846,251.677,78.846z"/>
		<path style="fill:#FFFFFF;" d="M257.227,83.246c0.151,0,0.295-0.011,0.436-0.033c0.139-0.022,0.25-0.045,0.332-0.069v0.65
			c-0.092,0.044-0.228,0.081-0.407,0.11c-0.179,0.029-0.34,0.043-0.483,0.043c-1.085,0-1.627-0.571-1.627-1.714v-3.335h-0.804
			v-0.409l0.804-0.353l0.359-1.197h0.49v1.299h1.627v0.66h-1.627v3.3c0,0.338,0.08,0.597,0.24,0.778
			C256.727,83.155,256.948,83.246,257.227,83.246z"/>
	</g>
</g>
<g>
</g>
<g>
</g>
<g>
</g>
<g>
</g>
<g>
</g>
<g>
</g>
<g>
</g>
<g>
</g>
<g>
</g>
<g>
</g>
<g>
</g>
<g>
</g>
<g>
</g>
<g>
</g>
<g>
</g>
</svg>
