<?xml version="1.0" encoding="iso-8859-1"?>
<!-- Generator: Adobe Illustrator 18.1.1, SVG Export Plug-In . SVG Version: 6.00 Build 0)  -->
<!DOCTYPE svg PUBLIC "-//W3C//DTD SVG 1.1//EN" "http://www.w3.org/Graphics/SVG/1.1/DTD/svg11.dtd">
<svg version="1.1" id="Layer_1" xmlns="http://www.w3.org/2000/svg" xmlns:xlink="http://www.w3.org/1999/xlink" x="0px" y="0px"
	 viewBox="0 0 360.475 112.88" style="enable-background:new 0 0 360.475 112.88;" xml:space="preserve">
<g>
	<g>
		<g>
			<g>
				<path style="fill:#FF971A;" d="M39.017,59.851c0.359,0.276,0.824,0.401,1.273,0.342c0.449-0.059,0.866-0.299,1.143-0.658
					c0.276-0.359,0.401-0.824,0.342-1.273c-0.059-0.449-0.299-0.866-0.658-1.143c-0.359-0.276-0.824-0.401-1.273-0.342
					c-0.449,0.059-0.866,0.299-1.143,0.658c-0.276,0.359-0.401,0.824-0.342,1.273C38.418,59.157,38.658,59.574,39.017,59.851z"/>
				<path style="fill:#FF971A;" d="M54.556,92.42L16.698,69.789c0.43-0.391,0.845-0.807,1.212-1.284
					c1.301-1.692,1.972-3.671,2.056-5.657l14.587-1.905c0.943-0.123,1.608-0.988,1.485-1.932c-0.123-0.943-0.988-1.608-1.931-1.485
					l-14.587,1.905c-0.591-1.897-1.748-3.638-3.439-4.938c-0.161-0.124-0.342-0.202-0.508-0.315l26.385-33.795
					c0.697-0.892,0.538-2.179-0.354-2.875c-0.89-0.694-2.179-0.538-2.875,0.354l-27.123,34.74c-3.513-0.571-7.22,0.707-9.537,3.721
					c-3.359,4.368-2.538,10.653,1.83,14.012c2.73,2.1,6.21,2.566,9.256,1.553c0.107,0.108,0.202,0.226,0.339,0.308l39.161,23.409
					c0.035,0.021,0.071,0.042,0.107,0.06c0.863,0.442,1.932,0.143,2.437-0.701C55.724,94.085,55.436,92.945,54.556,92.42z
					 M5.998,67.603c-2.861-2.2-3.399-6.319-1.199-9.18c2.201-2.862,6.319-3.399,9.18-1.199c2.861,2.201,3.399,6.319,1.199,9.18
					C12.977,69.266,8.859,69.803,5.998,67.603z"/>
			</g>
		</g>
		<g>
			<path style="fill:#0FA3B1;" d="M101.038,55.93c-2.769-2.13-6.306-2.567-9.382-1.497c-0.092-0.243-0.229-0.472-0.422-0.669
				l-13.38-13.67c-0.154-0.156-0.337-0.26-0.522-0.353c0.661-2.253-0.063-4.781-2.033-6.296c-2.56-1.969-6.245-1.488-8.214,1.073
				c-1.604,2.085-1.582,4.916-0.135,6.959l-2.792,3.631c-1.951-1.119-4.11-1.67-6.26-1.68l-2.039-15.617
				c4.275-1.105,7.848-4.176,9.55-8.319c0.362-0.88-0.059-1.887-0.939-2.248c-0.88-0.362-1.887,0.059-2.248,0.939
				c-1.449,3.526-4.687,6.026-8.458,6.535c-0.015,0.002-0.03,0.002-0.046,0.004c-0.013,0.002-0.027,0.005-0.04,0.007
				c-5.824,0.738-11.173-3.386-11.934-9.213c-0.763-5.84,3.368-11.212,9.208-11.974c3.694-0.482,7.307,0.955,9.666,3.845
				c0.601,0.736,1.687,0.847,2.424,0.245c0.737-0.602,0.847-1.687,0.245-2.424c-3.119-3.82-7.897-5.72-12.782-5.082
				C42.782,1.13,37.318,8.235,38.327,15.959c0.504,3.862,2.533,7.159,5.4,9.364c2.438,1.875,5.483,2.956,8.714,2.93l2.04,15.618
				c-2.6,0.704-4.998,2.229-6.763,4.524c-4.285,5.572-3.238,13.592,2.335,17.878c2.295,1.765,5.004,2.623,7.697,2.635l2.472,18.934
				c-2.6,0.703-4.998,2.229-6.763,4.524c-4.285,5.573-3.238,13.592,2.334,17.878c5.573,4.285,13.592,3.238,17.878-2.335
				c4.285-5.573,3.238-13.592-2.335-17.877c-2.295-1.765-5.005-2.623-7.698-2.635l-2.472-18.933c2.6-0.704,4.999-2.229,6.764-4.524
				c0.843-1.096,1.476-2.287,1.912-3.525l15.123,3.13c-0.091,3.099,1.251,6.198,3.89,8.228c4.368,3.359,10.654,2.538,14.012-1.83
				S105.406,59.288,101.038,55.93z M69.236,92.762c4.066,3.127,4.831,8.979,1.704,13.046c-3.127,4.066-8.979,4.831-13.046,1.703
				c-4.066-3.127-4.831-8.979-1.704-13.046C59.318,90.399,65.17,89.635,69.236,92.762z M69.816,36.616
				c0.811-1.054,2.328-1.252,3.382-0.442c1.054,0.811,1.252,2.328,0.442,3.382c-0.811,1.054-2.328,1.252-3.382,0.442
				C69.203,39.187,69.005,37.67,69.816,36.616z M65.199,61.837c-3.127,4.067-8.979,4.831-13.046,1.704s-4.831-8.979-1.704-13.046
				c3.127-4.067,8.979-4.831,13.046-1.704C67.562,51.919,68.326,57.771,65.199,61.837z M85.66,60.169l-15.122-3.13
				c0.239-3.568-1.022-7.179-3.649-9.833l2.792-3.631c1.821,0.678,3.874,0.393,5.454-0.739l13.224,13.511
				c-0.479,0.421-0.929,0.888-1.333,1.412C86.446,58.514,85.994,59.326,85.66,60.169z M100.137,67.841
				c-2.201,2.862-6.319,3.399-9.18,1.199c-2.862-2.201-3.399-6.319-1.199-9.18c2.201-2.862,6.319-3.399,9.18-1.199
				C101.799,60.861,102.337,64.98,100.137,67.841z"/>
			<path style="fill:#0FA3B1;" d="M62.935,12.813c0.06,0.475,0.308,0.88,0.659,1.151c0.347,0.267,0.796,0.403,1.265,0.344
				c0.944-0.119,1.613-0.98,1.494-1.924l-0.011-0.087c-0.126-0.943-0.992-1.606-1.935-1.481c-0.943,0.125-1.606,0.992-1.481,1.935
				L62.935,12.813z"/>
		</g>
	</g>
	<g>
		<path style="fill:#0FA3B1;" d="M155.104,45.92c-2.385,7.611-4.8,14.651-7.24,21.125c-2.442,6.474-4.884,12.777-7.326,18.911
			h-8.263c-3.011-8.689-5.665-17.859-7.965-27.514c-2.3-9.654-4.444-20.159-6.431-31.517h8.689c0.795,4.429,1.618,8.859,2.47,13.288
			c0.852,4.429,1.732,8.731,2.641,12.905c0.908,4.174,1.817,8.165,2.726,11.968c0.907,3.805,1.845,7.326,2.811,10.563
			c2.271-5.963,4.685-12.507,7.24-19.635c2.555-7.126,4.94-14.494,7.155-22.105h7.155c2.215,7.611,4.628,14.979,7.24,22.105
			c2.612,7.127,5.054,13.672,7.326,19.635c0.908-3.18,1.817-6.672,2.726-10.477c0.908-3.804,1.802-7.794,2.683-11.968
			c0.88-4.174,1.747-8.489,2.598-12.948c0.852-4.458,1.675-8.902,2.47-13.331h8.433c-2.044,11.358-4.217,21.864-6.517,31.517
			c-2.3,9.655-4.927,18.825-7.879,27.514h-8.263c-2.5-6.133-4.941-12.437-7.326-18.911C159.874,60.571,157.489,53.531,155.104,45.92
			z"/>
		<path style="fill:#0FA3B1;" d="M213.283,40.553c3.18,0,5.863,0.413,8.05,1.235c2.185,0.824,3.946,1.989,5.281,3.493
			c1.334,1.505,2.285,3.294,2.854,5.367c0.567,2.074,0.851,4.359,0.851,6.857v27.684c-0.681,0.114-1.633,0.27-2.854,0.468
			c-1.222,0.2-2.598,0.384-4.131,0.554c-1.534,0.17-3.194,0.326-4.983,0.468c-1.789,0.141-3.564,0.213-5.324,0.213
			c-2.499,0-4.8-0.255-6.9-0.767c-2.102-0.511-3.919-1.32-5.452-2.428c-1.534-1.107-2.726-2.569-3.577-4.387
			c-0.852-1.817-1.278-4.003-1.278-6.559c0-2.441,0.496-4.542,1.491-6.304c0.993-1.759,2.342-3.18,4.046-4.259
			c1.703-1.078,3.691-1.874,5.963-2.385c2.271-0.511,4.656-0.767,7.155-0.767c0.794,0,1.618,0.043,2.47,0.128
			c0.852,0.085,1.661,0.2,2.428,0.341c0.767,0.142,1.434,0.27,2.002,0.383c0.567,0.114,0.965,0.199,1.193,0.256v-2.215
			c0-1.306-0.143-2.598-0.426-3.876c-0.285-1.278-0.796-2.413-1.534-3.407c-0.738-0.993-1.746-1.789-3.024-2.385
			c-1.277-0.596-2.939-0.894-4.983-0.894c-2.613,0-4.898,0.185-6.857,0.554c-1.959,0.37-3.422,0.753-4.387,1.15l-0.937-6.559
			c1.022-0.454,2.726-0.895,5.111-1.321C207.916,40.766,210.5,40.553,213.283,40.553z M213.964,80.248
			c1.874,0,3.535-0.043,4.983-0.128c1.448-0.085,2.654-0.241,3.62-0.469V66.449c-0.569-0.283-1.491-0.524-2.769-0.724
			c-1.277-0.198-2.826-0.298-4.642-0.298c-1.193,0-2.457,0.085-3.79,0.256c-1.335,0.17-2.555,0.526-3.663,1.065
			c-1.107,0.54-2.031,1.278-2.768,2.215c-0.739,0.937-1.108,2.172-1.108,3.706c0,2.84,0.908,4.813,2.726,5.92
			C208.37,79.695,210.84,80.248,213.964,80.248z"/>
		<path style="fill:#0FA3B1;" d="M256.725,86.808c-4.885-0.114-8.348-1.163-10.392-3.152c-2.044-1.987-3.067-5.081-3.067-9.285
			V21.217l7.922-1.363v53.239c0,1.307,0.113,2.385,0.341,3.237c0.227,0.851,0.596,1.533,1.108,2.044
			c0.511,0.511,1.193,0.895,2.044,1.15c0.852,0.256,1.902,0.468,3.152,0.639L256.725,86.808z"/>
		<path style="fill:#0FA3B1;" d="M279.979,86.808c-4.885-0.114-8.348-1.163-10.392-3.152c-2.044-1.987-3.067-5.081-3.067-9.285
			V21.217l7.922-1.363v53.239c0,1.307,0.113,2.385,0.341,3.237c0.227,0.851,0.596,1.533,1.108,2.044
			c0.511,0.511,1.193,0.895,2.044,1.15c0.852,0.256,1.902,0.468,3.152,0.639L279.979,86.808z"/>
		<path style="fill:#0B7A85;" d="M297.863,33.654c-1.42,0-2.628-0.469-3.62-1.405c-0.995-0.937-1.491-2.2-1.491-3.791
			c0-1.589,0.496-2.854,1.491-3.79c0.993-0.937,2.2-1.405,3.62-1.405c1.419,0,2.626,0.469,3.62,1.405
			c0.993,0.937,1.491,2.202,1.491,3.79c0,1.591-0.498,2.854-1.491,3.791C300.489,33.185,299.282,33.654,297.863,33.654z
			 M301.867,85.956h-7.922V41.661h7.922V85.956z"/>
		<path style="fill:#0B7A85;" d="M360.475,56.398c0,5.111-0.796,9.555-2.385,13.331c-1.59,3.777-3.833,6.9-6.729,9.37
			c-2.896,2.47-6.361,4.316-10.392,5.537c-4.033,1.222-8.462,1.831-13.289,1.831c-2.385,0-5.012-0.099-7.879-0.298
			c-2.868-0.2-5.466-0.582-7.794-1.15V27.777c2.328-0.567,4.926-0.95,7.794-1.15c2.867-0.198,5.494-0.298,7.879-0.298
			c4.826,0,9.256,0.611,13.289,1.831c4.031,1.222,7.496,3.067,10.392,5.537c2.896,2.47,5.139,5.594,6.729,9.37
			C359.679,46.844,360.475,51.286,360.475,56.398z M328.361,79.226c7.837,0,13.685-2.002,17.547-6.005
			c3.861-4.003,5.793-9.611,5.793-16.824c0-7.211-1.931-12.82-5.793-16.824c-3.862-4.003-9.711-6.005-17.547-6.005
			c-2.329,0-4.132,0.029-5.409,0.085c-1.278,0.057-2.173,0.114-2.683,0.17v45.147c0.511,0.057,1.405,0.114,2.683,0.17
			C324.23,79.199,326.032,79.226,328.361,79.226z"/>
	</g>
	<g>
		<path style="fill:#1B8993;" d="M134.669,103.616l2.581-4.837h1.218l-3.229,5.922v3.752h-1.138v-3.699l-3.223-5.975h1.231
			L134.669,103.616z"/>
		<path style="fill:#1B8993;" d="M145.892,104.82c0,1.183-0.298,2.105-0.893,2.77c-0.596,0.664-1.418,0.996-2.468,0.996
			c-0.648,0-1.224-0.152-1.727-0.457s-0.891-0.741-1.165-1.311c-0.274-0.568-0.411-1.234-0.411-1.998
			c0-1.183,0.296-2.104,0.887-2.763c0.591-0.659,1.412-0.989,2.462-0.989c1.015,0,1.821,0.338,2.418,1.013
			S145.892,103.668,145.892,104.82z M140.367,104.82c0,0.927,0.186,1.632,0.556,2.117s0.915,0.729,1.634,0.729
			s1.265-0.242,1.638-0.725c0.373-0.483,0.559-1.19,0.559-2.121c0-0.922-0.186-1.622-0.559-2.101
			c-0.373-0.479-0.923-0.719-1.651-0.719c-0.719,0-1.262,0.236-1.628,0.708C140.55,103.181,140.367,103.884,140.367,104.82z"/>
		<path style="fill:#1B8993;" d="M148.85,101.201v4.704c0,0.592,0.135,1.032,0.404,1.323c0.269,0.292,0.69,0.438,1.264,0.438
			c0.759,0,1.313-0.208,1.665-0.622c0.351-0.415,0.526-1.092,0.526-2.031v-3.812h1.099v7.252H152.9l-0.159-0.973h-0.06
			c-0.225,0.357-0.537,0.631-0.937,0.82s-0.854,0.285-1.366,0.285c-0.882,0-1.543-0.21-1.982-0.629s-0.658-1.09-0.658-2.012v-4.744
			H148.85z"/>
		<path style="fill:#1B8993;" d="M159.444,101.068c0.322,0,0.611,0.026,0.867,0.079l-0.152,1.02c-0.3-0.066-0.565-0.1-0.794-0.1
			c-0.586,0-1.088,0.238-1.505,0.715c-0.417,0.477-0.625,1.069-0.625,1.78v3.891h-1.099v-7.252h0.907l0.125,1.343h0.053
			c0.269-0.472,0.593-0.836,0.973-1.092S158.989,101.068,159.444,101.068z"/>
		<path style="fill:#1B8993;" d="M165.353,108.453v-9.674h1.125v9.674H165.353z"/>
		<path style="fill:#1B8993;" d="M176.854,103.523c0,1.597-0.434,2.817-1.3,3.662c-0.867,0.846-2.114,1.268-3.742,1.268h-2.68
			v-9.674h2.964c1.504,0,2.673,0.416,3.507,1.25C176.437,100.863,176.854,102.028,176.854,103.523z M175.663,103.563
			c0-1.262-0.317-2.213-0.95-2.853c-0.633-0.64-1.574-0.959-2.822-0.959h-1.634v7.729h1.37c1.341,0,2.349-0.33,3.024-0.989
			C175.326,105.831,175.663,104.855,175.663,103.563z"/>
		<path style="fill:#1B8993;" d="M182.273,99.235c0-0.251,0.062-0.436,0.186-0.553c0.123-0.116,0.277-0.175,0.463-0.175
			c0.177,0,0.328,0.06,0.457,0.179c0.128,0.119,0.191,0.302,0.191,0.549s-0.063,0.432-0.191,0.553
			c-0.129,0.121-0.28,0.182-0.457,0.182c-0.186,0-0.34-0.061-0.463-0.182C182.334,99.666,182.273,99.482,182.273,99.235z
			 M183.464,108.453h-1.099v-7.252h1.099V108.453z"/>
		<path style="fill:#1B8993;" d="M190.756,108.453v-4.691c0-0.591-0.135-1.032-0.404-1.323c-0.269-0.291-0.69-0.438-1.264-0.438
			c-0.759,0-1.314,0.206-1.667,0.616c-0.354,0.41-0.529,1.087-0.529,2.031v3.805h-1.099v-7.252h0.894l0.179,0.992h0.053
			c0.225-0.357,0.54-0.634,0.946-0.83c0.405-0.196,0.857-0.295,1.356-0.295c0.873,0,1.53,0.211,1.972,0.632
			c0.441,0.422,0.662,1.096,0.662,2.021v4.731H190.756z"/>
		<path style="fill:#1B8993;" d="M196.48,101.201h1.178l1.588,4.136c0.349,0.943,0.564,1.625,0.648,2.044h0.053
			c0.058-0.225,0.178-0.609,0.361-1.154c0.183-0.545,0.781-2.22,1.796-5.025h1.178l-3.116,8.258
			c-0.309,0.816-0.67,1.396-1.082,1.737s-0.919,0.513-1.519,0.513c-0.335,0-0.666-0.038-0.992-0.112v-0.881
			c0.242,0.054,0.514,0.08,0.813,0.08c0.755,0,1.293-0.424,1.614-1.271l0.404-1.032L196.48,101.201z"/>
		<path style="fill:#1B8993;" d="M210.72,104.82c0,1.183-0.298,2.105-0.894,2.77s-1.418,0.996-2.468,0.996
			c-0.648,0-1.225-0.152-1.728-0.457s-0.891-0.741-1.164-1.311c-0.274-0.568-0.411-1.234-0.411-1.998
			c0-1.183,0.296-2.104,0.887-2.763c0.592-0.659,1.412-0.989,2.462-0.989c1.015,0,1.821,0.338,2.419,1.013
			S210.72,103.668,210.72,104.82z M205.195,104.82c0,0.927,0.186,1.632,0.556,2.117c0.371,0.485,0.915,0.729,1.635,0.729
			c0.719,0,1.265-0.242,1.638-0.725c0.373-0.483,0.559-1.19,0.559-2.121c0-0.922-0.186-1.622-0.559-2.101S208.1,102,207.372,102
			c-0.719,0-1.262,0.236-1.628,0.708C205.377,103.181,205.195,103.884,205.195,104.82z"/>
		<path style="fill:#1B8993;" d="M213.677,101.201v4.704c0,0.592,0.135,1.032,0.404,1.323c0.269,0.292,0.69,0.438,1.264,0.438
			c0.759,0,1.313-0.208,1.664-0.622c0.351-0.415,0.526-1.092,0.526-2.031v-3.812h1.099v7.252h-0.907l-0.158-0.973h-0.06
			c-0.226,0.357-0.537,0.631-0.937,0.82s-0.854,0.285-1.366,0.285c-0.883,0-1.543-0.21-1.982-0.629
			c-0.438-0.419-0.658-1.09-0.658-2.012v-4.744H213.677z"/>
		<path style="fill:#1B8993;" d="M224.272,101.068c0.321,0,0.61,0.026,0.866,0.079l-0.151,1.02c-0.301-0.066-0.565-0.1-0.795-0.1
			c-0.586,0-1.088,0.238-1.505,0.715s-0.625,1.069-0.625,1.78v3.891h-1.099v-7.252h0.906l0.126,1.343h0.053
			c0.27-0.472,0.594-0.836,0.973-1.092C223.401,101.196,223.817,101.068,224.272,101.068z"/>
		<path style="fill:#1B8993;" d="M235.574,108.453h-5.393v-9.674h5.393v0.999h-4.268v3.116h4.01v0.993h-4.01v3.56h4.268V108.453z"/>
		<path style="fill:#1B8993;" d="M239.895,107.678c0.194,0,0.382-0.014,0.562-0.043c0.181-0.028,0.324-0.059,0.43-0.089v0.84
			c-0.119,0.058-0.294,0.104-0.525,0.143c-0.231,0.037-0.44,0.057-0.626,0.057c-1.402,0-2.104-0.739-2.104-2.217v-4.314h-1.039
			v-0.529l1.039-0.457l0.463-1.549h0.635v1.682h2.104v0.854h-2.104v4.268c0,0.437,0.104,0.772,0.312,1.006
			C239.248,107.562,239.534,107.678,239.895,107.678z"/>
		<path style="fill:#1B8993;" d="M247.299,108.453v-4.691c0-0.591-0.135-1.032-0.403-1.323c-0.27-0.291-0.69-0.438-1.264-0.438
			c-0.764,0-1.32,0.208-1.671,0.622c-0.351,0.415-0.526,1.095-0.526,2.038v3.792h-1.099V98.157h1.099v3.116
			c0,0.375-0.018,0.687-0.053,0.934h0.066c0.216-0.349,0.523-0.623,0.923-0.824s0.854-0.301,1.366-0.301
			c0.887,0,1.552,0.21,1.995,0.632c0.443,0.421,0.665,1.091,0.665,2.008v4.731H247.299z"/>
		<path style="fill:#1B8993;" d="M253.718,108.585c-1.072,0-1.918-0.327-2.538-0.979c-0.62-0.653-0.93-1.56-0.93-2.72
			c0-1.169,0.288-2.098,0.863-2.786c0.576-0.688,1.349-1.032,2.319-1.032c0.909,0,1.628,0.299,2.157,0.896s0.794,1.387,0.794,2.366
			v0.694h-4.996c0.022,0.852,0.237,1.498,0.646,1.938c0.408,0.441,0.982,0.662,1.724,0.662c0.781,0,1.553-0.163,2.316-0.489v0.979
			c-0.389,0.168-0.756,0.288-1.102,0.361C254.625,108.548,254.207,108.585,253.718,108.585z M253.42,101.988
			c-0.583,0-1.047,0.189-1.394,0.569c-0.346,0.379-0.55,0.904-0.611,1.574h3.791c0-0.692-0.154-1.223-0.463-1.591
			S253.994,101.988,253.42,101.988z"/>
		<path style="fill:#1B8993;" d="M261.566,101.068c0.322,0,0.611,0.026,0.867,0.079l-0.152,1.02c-0.3-0.066-0.564-0.1-0.794-0.1
			c-0.587,0-1.089,0.238-1.506,0.715c-0.416,0.477-0.625,1.069-0.625,1.78v3.891h-1.099v-7.252h0.907l0.125,1.343h0.054
			c0.269-0.472,0.593-0.836,0.973-1.092C260.695,101.196,261.112,101.068,261.566,101.068z"/>
		<path style="fill:#1B8993;" d="M266.853,108.585c-1.072,0-1.918-0.327-2.537-0.979c-0.62-0.653-0.931-1.56-0.931-2.72
			c0-1.169,0.288-2.098,0.864-2.786c0.575-0.688,1.349-1.032,2.319-1.032c0.908,0,1.628,0.299,2.157,0.896s0.794,1.387,0.794,2.366
			v0.694h-4.996c0.021,0.852,0.237,1.498,0.646,1.938c0.407,0.441,0.982,0.662,1.724,0.662c0.78,0,1.553-0.163,2.315-0.489v0.979
			c-0.388,0.168-0.755,0.288-1.102,0.361C267.76,108.548,267.343,108.585,266.853,108.585z M266.555,101.988
			c-0.582,0-1.047,0.189-1.393,0.569c-0.347,0.379-0.551,0.904-0.612,1.574h3.792c0-0.692-0.155-1.223-0.464-1.591
			S267.128,101.988,266.555,101.988z"/>
		<path style="fill:#1B8993;" d="M272.424,101.201v4.704c0,0.592,0.135,1.032,0.404,1.323c0.269,0.292,0.69,0.438,1.264,0.438
			c0.759,0,1.313-0.208,1.664-0.622c0.351-0.415,0.526-1.092,0.526-2.031v-3.812h1.099v7.252h-0.907l-0.158-0.973h-0.06
			c-0.226,0.357-0.537,0.631-0.937,0.82s-0.854,0.285-1.366,0.285c-0.883,0-1.543-0.21-1.982-0.629
			c-0.438-0.419-0.658-1.09-0.658-2.012v-4.744H272.424z"/>
		<path style="fill:#1B8993;" d="M288.955,108.453v-4.718c0-0.578-0.124-1.012-0.371-1.301S287.953,102,287.432,102
			c-0.684,0-1.188,0.197-1.515,0.59c-0.327,0.393-0.49,0.996-0.49,1.812v4.05h-1.099v-4.718c0-0.578-0.123-1.012-0.37-1.301
			S283.326,102,282.8,102c-0.688,0-1.192,0.207-1.512,0.619c-0.32,0.412-0.479,1.089-0.479,2.028v3.805h-1.099v-7.252h0.894
			l0.179,0.992h0.053c0.207-0.353,0.499-0.629,0.877-0.827c0.377-0.198,0.799-0.298,1.267-0.298c1.134,0,1.875,0.41,2.224,1.23
			h0.053c0.216-0.379,0.529-0.679,0.939-0.899s0.878-0.331,1.403-0.331c0.82,0,1.435,0.211,1.843,0.632
			c0.408,0.422,0.612,1.096,0.612,2.021v4.731H288.955z"/>
		<path style="fill:#1B8993;" d="M304.445,108.453h-1.111l-1.952-6.479c-0.093-0.286-0.196-0.648-0.311-1.085
			c-0.115-0.437-0.175-0.699-0.179-0.787c-0.098,0.582-0.252,1.22-0.464,1.912l-1.893,6.438h-1.111l-2.574-9.674h1.191l1.528,5.975
			c0.212,0.839,0.366,1.598,0.463,2.276c0.119-0.807,0.296-1.597,0.53-2.369l1.733-5.882h1.19l1.82,5.936
			c0.212,0.684,0.391,1.455,0.536,2.315c0.083-0.626,0.242-1.39,0.477-2.289l1.521-5.962h1.191L304.445,108.453z"/>
		<path style="fill:#1B8993;" d="M312.842,108.453l-0.219-1.032h-0.053c-0.361,0.454-0.723,0.762-1.082,0.923
			s-0.809,0.242-1.347,0.242c-0.719,0-1.282-0.186-1.69-0.557c-0.408-0.37-0.612-0.897-0.612-1.581c0-1.465,1.172-2.232,3.514-2.303
			l1.231-0.04v-0.45c0-0.568-0.123-0.989-0.368-1.26c-0.244-0.271-0.636-0.407-1.174-0.407c-0.604,0-1.288,0.186-2.052,0.556
			l-0.337-0.84c0.357-0.194,0.748-0.347,1.174-0.457s0.853-0.165,1.281-0.165c0.864,0,1.505,0.191,1.922,0.575
			s0.625,0.999,0.625,1.847v4.949H312.842z M310.361,107.678c0.684,0,1.221-0.188,1.611-0.562s0.585-0.899,0.585-1.574v-0.655
			l-1.098,0.046c-0.874,0.031-1.504,0.167-1.89,0.407s-0.579,0.614-0.579,1.121c0,0.397,0.12,0.699,0.36,0.907
			C309.592,107.575,309.928,107.678,310.361,107.678z"/>
		<path style="fill:#1B8993;" d="M317.018,108.453h-1.099V98.157h1.099V108.453z"/>
		<path style="fill:#1B8993;" d="M320.446,108.453h-1.099V98.157h1.099V108.453z"/>
		<path style="fill:#1B8993;" d="M325.838,108.585c-1.072,0-1.918-0.327-2.538-0.979c-0.62-0.653-0.93-1.56-0.93-2.72
			c0-1.169,0.288-2.098,0.863-2.786c0.576-0.688,1.349-1.032,2.319-1.032c0.909,0,1.628,0.299,2.157,0.896s0.794,1.387,0.794,2.366
			v0.694h-4.996c0.022,0.852,0.237,1.498,0.646,1.938c0.408,0.441,0.982,0.662,1.724,0.662c0.781,0,1.553-0.163,2.316-0.489v0.979
			c-0.389,0.168-0.756,0.288-1.102,0.361C326.746,108.548,326.328,108.585,325.838,108.585z M325.54,101.988
			c-0.583,0-1.047,0.189-1.394,0.569c-0.346,0.379-0.55,0.904-0.611,1.574h3.791c0-0.692-0.154-1.223-0.463-1.591
			S326.114,101.988,325.54,101.988z"/>
		<path style="fill:#1B8993;" d="M332.72,107.678c0.194,0,0.382-0.014,0.562-0.043c0.181-0.028,0.324-0.059,0.43-0.089v0.84
			c-0.119,0.058-0.294,0.104-0.525,0.143c-0.231,0.037-0.44,0.057-0.626,0.057c-1.402,0-2.104-0.739-2.104-2.217v-4.314h-1.039
			v-0.529l1.039-0.457l0.463-1.549h0.635v1.682h2.104v0.854h-2.104v4.268c0,0.437,0.104,0.772,0.312,1.006
			C332.074,107.562,332.359,107.678,332.72,107.678z"/>
	</g>
</g>
<g>
</g>
<g>
</g>
<g>
</g>
<g>
</g>
<g>
</g>
<g>
</g>
<g>
</g>
<g>
</g>
<g>
</g>
<g>
</g>
<g>
</g>
<g>
</g>
<g>
</g>
<g>
</g>
<g>
</g>
</svg>
